<svg width="65" height="65" viewBox="0 0 65 65" fill="none" xmlns="http://www.w3.org/2000/svg">
<rect width="65" height="65" rx="10" fill="#EFF7FF"/>
<path d="M42.04 36.2125C39.4075 35.0425 36.1675 34.1875 32.5 34.1875C28.8325 34.1875 25.5925 35.065 22.96 36.2125C21.7747 36.7474 20.7699 37.6144 20.0671 38.7086C19.3642 39.8027 18.9936 41.0771 19 42.3775V46H46V42.3775C46 39.7225 44.47 37.2925 42.04 36.2125ZM8.245 38.305C7.42985 38.6534 6.73508 39.2337 6.24704 39.9738C5.759 40.7138 5.49923 41.581 5.5 42.4675V46H15.625V42.3775C15.625 40.51 16.1425 38.755 17.0425 37.225C16.21 37.09 15.3775 37 14.5 37C12.2725 37 10.1575 37.4725 8.245 38.305ZM56.755 38.305C54.7821 37.4441 52.6526 36.9998 50.5 37C49.6225 37 48.79 37.09 47.9575 37.225C48.8575 38.755 49.375 40.51 49.375 42.3775V46H59.5V42.4675C59.5 40.645 58.42 39.025 56.755 38.305ZM32.5 32.5C36.235 32.5 39.25 29.485 39.25 25.75C39.25 22.015 36.235 19 32.5 19C28.765 19 25.75 22.015 25.75 25.75C25.75 29.485 28.765 32.5 32.5 32.5ZM8.86825 30.25L14.5 24.6182L20.1318 30.25L14.5 35.8818L8.86825 30.25ZM50.5 25.75L44.875 34.75H56.125L50.5 25.75Z" fill="#065A82"/>
</svg>
