<svg width="65" height="65" viewBox="0 0 65 65" fill="none" xmlns="http://www.w3.org/2000/svg">
<rect width="65" height="65" rx="10" fill="#EFF7FF"/>
<path fill-rule="evenodd" clip-rule="evenodd" d="M52.8125 17.6042C51.7351 17.6042 50.7017 18.0322 49.9399 18.794C49.178 19.5559 48.75 20.5892 48.75 21.6667V24.375H56.875V21.6667C56.875 20.5892 56.447 19.5559 55.6851 18.794C54.9233 18.0322 53.8899 17.6042 52.8125 17.6042ZM56.875 27.0833H48.75V49.4271L52.8125 55.5208L56.875 49.4271V27.0833ZM8.125 12.1875V52.8125C8.125 53.8899 8.55301 54.9233 9.31488 55.6851C10.0767 56.447 11.1101 56.875 12.1875 56.875H41.9792C43.0566 56.875 44.0899 56.447 44.8518 55.6851C45.6137 54.9233 46.0417 53.8899 46.0417 52.8125V12.1875C46.0417 11.1101 45.6137 10.0767 44.8518 9.31488C44.0899 8.55301 43.0566 8.125 41.9792 8.125H12.1875C11.1101 8.125 10.0767 8.55301 9.31488 9.31488C8.55301 10.0767 8.125 11.1101 8.125 12.1875ZM27.0833 20.3125C27.0833 19.9534 27.226 19.6089 27.48 19.355C27.7339 19.101 28.0784 18.9583 28.4375 18.9583H39.2708C39.63 18.9583 39.9744 19.101 40.2284 19.355C40.4823 19.6089 40.625 19.9534 40.625 20.3125C40.625 20.6716 40.4823 21.0161 40.2284 21.27C39.9744 21.524 39.63 21.6667 39.2708 21.6667H28.4375C28.0784 21.6667 27.7339 21.524 27.48 21.27C27.226 21.0161 27.0833 20.6716 27.0833 20.3125ZM28.4375 24.375C28.0784 24.375 27.7339 24.5177 27.48 24.7716C27.226 25.0256 27.0833 25.37 27.0833 25.7292C27.0833 26.0883 27.226 26.4328 27.48 26.6867C27.7339 26.9407 28.0784 27.0833 28.4375 27.0833H39.2708C39.63 27.0833 39.9744 26.9407 40.2284 26.6867C40.4823 26.4328 40.625 26.0883 40.625 25.7292C40.625 25.37 40.4823 25.0256 40.2284 24.7716C39.9744 24.5177 39.63 24.375 39.2708 24.375H28.4375ZM27.0833 37.9167C27.0833 37.5575 27.226 37.2131 27.48 36.9591C27.7339 36.7052 28.0784 36.5625 28.4375 36.5625H39.2708C39.63 36.5625 39.9744 36.7052 40.2284 36.9591C40.4823 37.2131 40.625 37.5575 40.625 37.9167C40.625 38.2758 40.4823 38.6203 40.2284 38.8742C39.9744 39.1282 39.63 39.2708 39.2708 39.2708H28.4375C28.0784 39.2708 27.7339 39.1282 27.48 38.8742C27.226 38.6203 27.0833 38.2758 27.0833 37.9167ZM28.4375 41.9792C28.0784 41.9792 27.7339 42.1218 27.48 42.3758C27.226 42.6297 27.0833 42.9742 27.0833 43.3333C27.0833 43.6925 27.226 44.0369 27.48 44.2909C27.7339 44.5448 28.0784 44.6875 28.4375 44.6875H39.2708C39.63 44.6875 39.9744 44.5448 40.2284 44.2909C40.4823 44.0369 40.625 43.6925 40.625 43.3333C40.625 42.9742 40.4823 42.6297 40.2284 42.3758C39.9744 42.1218 39.63 41.9792 39.2708 41.9792H28.4375ZM16.25 37.9167V41.9792H20.3125V37.9167H16.25ZM14.8958 35.2083H21.6667C22.0258 35.2083 22.3703 35.351 22.6242 35.605C22.8782 35.8589 23.0208 36.2034 23.0208 36.5625V43.3333C23.0208 43.6925 22.8782 44.0369 22.6242 44.2909C22.3703 44.5448 22.0258 44.6875 21.6667 44.6875H14.8958C14.5367 44.6875 14.1922 44.5448 13.9383 44.2909C13.6843 44.0369 13.5417 43.6925 13.5417 43.3333V36.5625C13.5417 36.2034 13.6843 35.8589 13.9383 35.605C14.1922 35.351 14.5367 35.2083 14.8958 35.2083ZM23.9782 21.2699C24.2249 21.0145 24.3614 20.6724 24.3583 20.3174C24.3552 19.9623 24.2128 19.6227 23.9617 19.3716C23.7107 19.1205 23.371 18.9781 23.016 18.975C22.6609 18.9719 22.3188 19.1084 22.0634 19.3551L17.6042 23.8144L15.8532 22.0634C15.5978 21.8168 15.2558 21.6803 14.9007 21.6834C14.5456 21.6864 14.206 21.8289 13.9549 22.0799C13.7039 22.331 13.5614 22.6706 13.5584 23.0257C13.5553 23.3808 13.6918 23.7228 13.9384 23.9782L17.6042 27.644L23.9782 21.2699Z" fill="#065A82"/>
</svg>
