<svg width="65" height="65" viewBox="0 0 65 65" fill="none" xmlns="http://www.w3.org/2000/svg">
<rect width="65" height="65" rx="10" fill="#EFF7FF"/>
<path d="M27.0827 32.5002C24.1035 32.5002 21.5532 31.4394 19.4316 29.3179C17.3101 27.1963 16.2493 24.646 16.2493 21.6668C16.2493 18.6877 17.3101 16.1373 19.4316 14.0158C21.5532 11.8943 24.1035 10.8335 27.0827 10.8335C30.0618 10.8335 32.6122 11.8943 34.7337 14.0158C36.8553 16.1373 37.916 18.6877 37.916 21.6668C37.916 24.646 36.8553 27.1963 34.7337 29.3179C32.6122 31.4394 30.0618 32.5002 27.0827 32.5002ZM10.8327 54.1668C9.3431 54.1668 8.06838 53.6369 7.00852 52.577C5.94865 51.5172 5.41782 50.2416 5.41602 48.7502V46.5835C5.41602 45.0939 5.7997 43.6946 6.56706 42.3856C7.33442 41.0765 8.39518 40.0835 9.74935 39.4064C12.0514 38.2328 14.6469 37.2397 17.5358 36.4272C20.4247 35.6147 23.607 35.2085 27.0827 35.2085H28.8783C29.4416 35.2085 30.0167 35.2536 30.6035 35.3439C31.5063 35.4342 32.0931 35.9081 32.3639 36.7658C32.6348 37.6234 32.4542 38.3682 31.8223 39.0002L30.6712 40.1512C29.2719 41.5505 28.482 43.1981 28.3014 45.0939C28.1209 46.9897 28.5497 48.7276 29.5879 50.3075C30.1296 51.1651 30.2081 52.0227 29.8235 52.8804C29.4389 53.738 28.7962 54.1668 27.8952 54.1668H10.8327ZM42.1139 47.6668L53.8952 35.8856C54.3917 35.3891 55.0237 35.1408 55.791 35.1408C56.5584 35.1408 57.1903 35.3891 57.6869 35.8856C58.1834 36.3821 58.4316 37.014 58.4316 37.7814C58.4316 38.5488 58.1834 39.1807 57.6869 39.6772L44.0098 53.3543C43.4681 53.896 42.8362 54.1668 42.1139 54.1668C41.3917 54.1668 40.7598 53.896 40.2181 53.3543L34.666 47.8022C34.1695 47.3057 33.9212 46.6738 33.9212 45.9064C33.9212 45.1391 34.1695 44.5071 34.666 44.0106C35.1625 43.514 35.7945 43.2658 36.5619 43.2658C37.3292 43.2658 37.9612 43.514 38.4577 44.0106L42.1139 47.6668Z" fill="#065A82"/>
</svg>
