<svg width="65" height="65" viewBox="0 0 65 65" fill="none" xmlns="http://www.w3.org/2000/svg">
<rect width="65" height="65" rx="10" fill="#EFF7FF"/>
<path d="M15.4375 13C13.0671 13 10.7938 13.9416 9.11773 15.6177C7.44163 17.2938 6.5 19.5671 6.5 21.9375V26H58.5V21.9375C58.5 19.5671 57.5584 17.2938 55.8823 15.6177C54.2062 13.9416 51.9329 13 49.5625 13H15.4375ZM58.5 29.25H6.5V43.0625C6.5 45.4329 7.44163 47.7062 9.11773 49.3823C10.7938 51.0584 13.0671 52 15.4375 52H49.5625C51.9329 52 54.2062 51.0584 55.8823 49.3823C57.5584 47.7062 58.5 45.4329 58.5 43.0625V29.25ZM43.875 42.25H50.375C50.806 42.25 51.2193 42.4212 51.524 42.726C51.8288 43.0307 52 43.444 52 43.875C52 44.306 51.8288 44.7193 51.524 45.024C51.2193 45.3288 50.806 45.5 50.375 45.5H43.875C43.444 45.5 43.0307 45.3288 42.726 45.024C42.4212 44.7193 42.25 44.306 42.25 43.875C42.25 43.444 42.4212 43.0307 42.726 42.726C43.0307 42.4212 43.444 42.25 43.875 42.25Z" fill="#065A82"/>
</svg>
