<svg width="65" height="65" viewBox="0 0 65 65" fill="none" xmlns="http://www.w3.org/2000/svg">
<rect width="65" height="65" rx="10" fill="#EFF7FF"/>
<path d="M12.5556 9C11.8778 9 11.2278 9.26925 10.7485 9.7485C10.2692 10.2278 10 10.8778 10 11.5556V52.4444C10 53.1222 10.2692 53.7722 10.7485 54.2515C11.2278 54.7308 11.8778 55 12.5556 55H53.4444C54.1222 55 54.7722 54.7308 55.2515 54.2515C55.7308 53.7722 56 53.1222 56 52.4444V11.5556C56 10.8778 55.7308 10.2278 55.2515 9.7485C54.7722 9.26925 54.1222 9 53.4444 9H12.5556ZM49.961 21.7778C50.4741 21.7778 50.8909 22.1926 50.8909 22.7076V32.3126C50.8909 33.1382 49.8883 33.555 49.3044 32.9691L45.8466 29.5132L36.4854 38.7722C36.1266 39.127 35.6424 39.3259 35.1378 39.3259C34.6333 39.3259 34.1491 39.127 33.7903 38.7722L27.5488 32.5996L18.3842 41.7662C18.0247 42.1256 17.5371 42.3276 17.0288 42.3276C16.5204 42.3276 16.0328 42.1256 15.6733 41.7662C15.3139 41.4067 15.1119 40.9191 15.1119 40.4107C15.1119 39.9023 15.3139 39.4148 15.6733 39.0553L26.1845 28.5382C26.5429 28.1803 27.0283 27.9788 27.5348 27.9777C28.0413 27.9766 28.5276 28.176 28.8875 28.5323L35.1388 34.7148L43.1377 26.8024L39.6975 23.3622C39.5684 23.232 39.4807 23.0664 39.4454 22.8865C39.4101 22.7065 39.4289 22.5201 39.4992 22.3507C39.5696 22.1814 39.6885 22.0366 39.841 21.9347C39.9935 21.8327 40.1727 21.7781 40.3561 21.7778H49.961Z" fill="#065A82"/>
</svg>
